<svg width="52" height="52" viewBox="0 0 52 52" fill="none" xmlns="http://www.w3.org/2000/svg">
<g clip-path="url(#clip0_14_4567)">
<path d="M14.6434 10.0655C10.7572 9.5408 6.81523 10.4874 3.59117 12.7197C2.4791 13.5012 1.49412 14.4495 0.670912 15.531C0.543944 15.6943 0.48953 16.0147 0.21141 15.918C-0.0667097 15.8212 0.0118894 15.5431 0.0058433 15.3134C-0.00932288 12.978 0.42162 10.6613 1.27552 8.48758C1.92818 6.73024 2.95996 5.13825 4.29752 3.82477C5.63507 2.51129 7.24556 1.50858 9.0145 0.88791C11.6265 -0.0553611 14.4647 -0.176287 17.1474 0.541394C19.8301 1.25907 22.2288 2.78095 24.0209 4.90237C26.5844 7.92531 27.6485 11.5528 27.7755 15.392C27.8662 17.7136 27.7755 20.0473 27.7755 22.375C27.7755 23.0884 27.5216 23.2274 26.8867 23.0581C23.7851 22.2178 20.6532 21.4016 17.5395 20.5793C12.7026 19.2734 8.26479 19.8961 4.26833 22.9977C3.16513 23.883 2.2029 24.9308 1.41458 26.1053C1.29366 26.2806 1.19692 26.5708 0.93694 26.4922C0.676958 26.4136 0.749511 26.1113 0.761603 25.8876C1.08809 19.7269 3.52466 14.7934 9.03869 11.6919C10.7716 10.7613 12.6815 10.2071 14.6434 10.0655Z" fill="#EB5F52"/>
<path d="M37.3403 41.9576C41.1511 42.5018 45.0285 41.6144 48.2232 39.4667C49.2506 38.8303 50.1523 38.0106 50.8835 37.0483C51.0084 36.862 51.1458 36.6842 51.2946 36.5163C51.4337 36.3652 51.5486 36.087 51.8146 36.2019C52.0806 36.3168 51.9839 36.5465 51.9778 36.74C51.9234 37.6287 51.9174 38.5538 51.7904 39.4002C51.3249 42.5743 50.2547 45.4944 48.0237 47.8644C46.3675 49.6513 44.2232 50.9126 41.8567 51.4919C39.7817 52.0711 37.5972 52.1376 35.4908 51.6859C33.3845 51.2341 31.4194 50.2774 29.7645 48.8982C26.7415 46.4799 25.1332 43.1668 24.4984 39.376C23.9422 36.081 24.2686 32.7255 24.19 29.4426C24.19 28.838 24.5226 28.838 24.9821 28.9469L34.5288 31.5224C39.3657 32.8162 43.8579 32.1633 47.8302 29.0013C48.9041 28.1338 49.847 27.1156 50.6296 25.9783C50.7384 25.8272 50.823 25.5672 51.0588 25.6337C51.2946 25.7002 51.2221 25.9723 51.216 26.1597C51.0588 33.3362 46.6694 40.1136 39.3657 41.6734C38.7006 41.7883 38.0235 41.8548 37.3403 41.9576Z" fill="#3A3557"/>
<path d="M41.9778 14.6725C42.4131 10.0958 41.3732 5.94832 38.3502 2.39335C37.8121 1.78876 37.1409 1.31718 36.5363 0.742822C36.3731 0.585629 36.0043 0.519125 36.1433 0.210785C36.2824 -0.0975546 36.5908 0.0233629 36.8265 0.0233629C38.7337 0.064309 40.626 0.369509 42.4494 0.930244C47.5644 2.59286 50.8232 6.06924 51.7301 11.3231C52.6733 16.7644 50.7386 21.3593 46.2887 24.7268C43.5753 26.6795 40.3265 27.7498 36.9837 27.7921C34.5653 27.9069 32.1469 27.8283 29.7284 27.8283C28.8578 27.8283 28.7974 27.7377 29.0271 26.855C29.9098 23.5297 30.8409 20.2045 31.6753 16.8853C33.1566 11.0692 31.24 5.09585 26.1129 1.5046C25.9013 1.3595 25.5083 1.27486 25.6232 0.948382C25.738 0.621904 26.0585 0.779097 26.2882 0.791189C32.0139 1.09953 36.7117 3.32441 39.91 8.23971C41.0939 10.1923 41.8022 12.3959 41.9778 14.6725Z" fill="#EB5F52"/>
<path d="M10.0244 37.5078C9.57093 42.3445 10.7378 46.6673 14.1841 50.2042C14.5831 50.6092 15.0426 50.9478 15.4719 51.3226C15.6351 51.4617 15.9495 51.5463 15.8649 51.8003C15.7803 52.0542 15.4417 51.9937 15.2059 51.9937C13.6965 51.9857 12.1931 51.8031 10.7257 51.4496C8.27015 50.9159 6.00143 49.7367 4.15364 48.0337C2.48675 46.4923 1.27218 44.5252 0.640869 42.3445C-0.310451 39.2899 -0.136725 35.9957 1.1306 33.058C2.47487 29.8807 4.97188 27.3298 8.11987 25.9179C10.6731 24.7476 13.4556 24.163 16.2639 24.2069H22.2737C23.1262 24.2069 23.2169 24.3036 23.0114 25.0956C22.1891 28.2516 21.4212 31.3954 20.5022 34.4849C19.5809 37.3994 19.6116 40.5316 20.59 43.4275C21.5684 46.3234 23.4435 48.8325 25.9437 50.5911C26.1251 50.7181 26.4879 50.7785 26.3609 51.0989C26.2702 51.3287 25.9679 51.2622 25.7563 51.2501C19.4079 50.8571 14.3836 48.2876 11.3968 42.4352C10.6492 40.8877 10.1844 39.219 10.0244 37.5078Z" fill="#CBA36E"/>
</g>
<defs>
<clipPath id="clip0_14_4567">
<rect width="52" height="52" fill="white"/>
</clipPath>
</defs>
</svg>
